<?xml version="1.0" standalone="no"?>
<!DOCTYPE svg PUBLIC "-//W3C//DTD SVG 20010904//EN"
 "http://www.w3.org/TR/2001/REC-SVG-20010904/DTD/svg10.dtd">
<svg version="1.0" xmlns="http://www.w3.org/2000/svg"
 width="300.000000pt" height="300.000000pt" viewBox="0 0 300.000000 300.000000"
 preserveAspectRatio="xMidYMid meet">
<metadata>
Created by potrace 1.11, written by Peter Selinger 2001-2013
</metadata>
<g transform="translate(0.000000,300.000000) scale(0.100000,-0.100000)"
fill="#000000" stroke="none">
<path d="M1399 2899 c-24 -4 -71 -9 -105 -12 -66 -6 -180 -35 -284 -71 -219
-77 -425 -219 -582 -401 -81 -94 -73 -83 -125 -165 -100 -161 -179 -370 -198
-529 -4 -30 -9 -63 -11 -75 -6 -27 -5 -230 1 -276 15 -122 27 -180 59 -281
132 -425 468 -765 891 -902 178 -58 265 -72 455 -71 167 0 234 8 371 45 465
125 833 473 975 924 44 141 61 258 62 420 1 164 -17 281 -64 426 -71 220 -176
390 -344 559 -201 201 -427 322 -720 385 -100 21 -307 34 -381 24z"/>
</g>
</svg>
